<svg id="visual" viewBox="0 0 4000 3200" width="4000" height="3200" xmlns="http://www.w3.org/2000/svg" xmlns:xlink="http://www.w3.org/1999/xlink" version="1.1"><rect x="0" y="0" width="4000" height="3200" fill="#ffffff"></rect><path d="M0 940L95.2 957.2C190.3 974.3 380.7 1008.7 571.2 1031.7C761.7 1054.7 952.3 1066.3 1142.8 1028.7C1333.3 991 1523.7 904 1714.2 915.7C1904.7 927.3 2095.3 1037.7 2285.8 1125.8C2476.3 1214 2666.7 1280 2857.2 1254C3047.7 1228 3238.3 1110 3428.8 999C3619.3 888 3809.7 784 3904.8 732L4000 680L4000 3201L3904.8 3201C3809.7 3201 3619.3 3201 3428.8 3201C3238.3 3201 3047.7 3201 2857.2 3201C2666.7 3201 2476.3 3201 2285.8 3201C2095.3 3201 1904.7 3201 1714.2 3201C1523.7 3201 1333.3 3201 1142.8 3201C952.3 3201 761.7 3201 571.2 3201C380.7 3201 190.3 3201 95.2 3201L0 3201Z" fill="#24c782"></path><path d="M0 1699L95.2 1620.7C190.3 1542.3 380.7 1385.7 571.2 1365.7C761.7 1345.7 952.3 1462.3 1142.8 1443.2C1333.3 1424 1523.7 1269 1714.2 1251.2C1904.7 1233.3 2095.3 1352.7 2285.8 1414.8C2476.3 1477 2666.7 1482 2857.2 1507.2C3047.7 1532.3 3238.3 1577.7 3428.8 1531.8C3619.3 1486 3809.7 1349 3904.8 1280.5L4000 1212L4000 3201L3904.8 3201C3809.7 3201 3619.3 3201 3428.8 3201C3238.3 3201 3047.7 3201 2857.2 3201C2666.7 3201 2476.3 3201 2285.8 3201C2095.3 3201 1904.7 3201 1714.2 3201C1523.7 3201 1333.3 3201 1142.8 3201C952.3 3201 761.7 3201 571.2 3201C380.7 3201 190.3 3201 95.2 3201L0 3201Z" fill="#28bd72"></path><path d="M0 1686L95.2 1681.3C190.3 1676.7 380.7 1667.3 571.2 1715.7C761.7 1764 952.3 1870 1142.8 1856.8C1333.3 1843.7 1523.7 1711.3 1714.2 1706.2C1904.7 1701 2095.3 1823 2285.8 1880.3C2476.3 1937.7 2666.7 1930.3 2857.2 1939.2C3047.7 1948 3238.3 1973 3428.8 1956.5C3619.3 1940 3809.7 1882 3904.8 1853L4000 1824L4000 3201L3904.8 3201C3809.7 3201 3619.3 3201 3428.8 3201C3238.3 3201 3047.7 3201 2857.2 3201C2666.7 3201 2476.3 3201 2285.8 3201C2095.3 3201 1904.7 3201 1714.2 3201C1523.7 3201 1333.3 3201 1142.8 3201C952.3 3201 761.7 3201 571.2 3201C380.7 3201 190.3 3201 95.2 3201L0 3201Z" fill="#2bb461"></path><path d="M0 1936L95.2 1937.2C190.3 1938.3 380.7 1940.7 571.2 2006.2C761.7 2071.7 952.3 2200.3 1142.8 2263C1333.3 2325.7 1523.7 2322.3 1714.2 2289.7C1904.7 2257 2095.3 2195 2285.8 2160.5C2476.3 2126 2666.7 2119 2857.2 2100.5C3047.7 2082 3238.3 2052 3428.8 2076.7C3619.3 2101.3 3809.7 2180.7 3904.8 2220.3L4000 2260L4000 3201L3904.8 3201C3809.7 3201 3619.3 3201 3428.8 3201C3238.3 3201 3047.7 3201 2857.2 3201C2666.7 3201 2476.3 3201 2285.8 3201C2095.3 3201 1904.7 3201 1714.2 3201C1523.7 3201 1333.3 3201 1142.8 3201C952.3 3201 761.7 3201 571.2 3201C380.7 3201 190.3 3201 95.2 3201L0 3201Z" fill="#2faa51"></path><path d="M0 2599L95.2 2533C190.3 2467 380.7 2335 571.2 2287.7C761.7 2240.3 952.3 2277.7 1142.8 2321C1333.3 2364.3 1523.7 2413.7 1714.2 2439.2C1904.7 2464.7 2095.3 2466.3 2285.8 2496.3C2476.3 2526.3 2666.7 2584.7 2857.2 2607.8C3047.7 2631 3238.3 2619 3428.8 2583.8C3619.3 2548.7 3809.7 2490.3 3904.8 2461.2L4000 2432L4000 3201L3904.8 3201C3809.7 3201 3619.3 3201 3428.8 3201C3238.3 3201 3047.7 3201 2857.2 3201C2666.7 3201 2476.3 3201 2285.8 3201C2095.3 3201 1904.7 3201 1714.2 3201C1523.7 3201 1333.3 3201 1142.8 3201C952.3 3201 761.7 3201 571.2 3201C380.7 3201 190.3 3201 95.2 3201L0 3201Z" fill="#32a140"></path><path d="M0 2854L95.2 2846.3C190.3 2838.7 380.7 2823.3 571.2 2819C761.7 2814.7 952.3 2821.3 1142.8 2827.3C1333.3 2833.3 1523.7 2838.7 1714.2 2845.3C1904.7 2852 2095.3 2860 2285.8 2835.3C2476.3 2810.7 2666.7 2753.3 2857.2 2711.8C3047.7 2670.3 3238.3 2644.7 3428.8 2665C3619.3 2685.3 3809.7 2751.7 3904.8 2784.8L4000 2818L4000 3201L3904.8 3201C3809.7 3201 3619.3 3201 3428.8 3201C3238.3 3201 3047.7 3201 2857.2 3201C2666.7 3201 2476.3 3201 2285.8 3201C2095.3 3201 1904.7 3201 1714.2 3201C1523.7 3201 1333.3 3201 1142.8 3201C952.3 3201 761.7 3201 571.2 3201C380.7 3201 190.3 3201 95.2 3201L0 3201Z" fill="#34972e"></path></svg>