<svg width="1957" height="452" viewBox="0 0 1957 452" fill="none" xmlns="http://www.w3.org/2000/svg">
<mask id="mask0_9_312" style="mask-type:alpha" maskUnits="userSpaceOnUse" x="26" y="0" width="339" height="353">
<path d="M195.5 137.514L364.808 352.378H26.192L195.5 137.514Z" fill="#04679F"/>
<path d="M195.5 61.5946L321.738 246.378H69.2616L195.5 61.5946Z" fill="#04679F"/>
<path d="M195.5 0L281.639 138.588H109.361L195.5 0Z" fill="#04679F"/>
</mask>
<g mask="url(#mask0_9_312)">
<path d="M195.5 137.514L364.808 352.378H26.192L195.5 137.514Z" fill="#04679F"/>
<path d="M195.5 61.5946L321.738 246.378H69.2616L195.5 61.5946Z" fill="#04679F"/>
<path d="M195.5 0L281.639 138.588H109.361L195.5 0Z" fill="#04679F"/>
<g filter="url(#filter0_i_9_312)">
<path d="M183.924 254.58C138.908 268.544 65.1667 261.061 25.7237 225.608L-56.5921 323.337L-11.5757 484.486L338.266 471.236C400.432 427.905 501.955 328.064 410.721 275.351C296.68 209.459 239.23 237.425 183.924 254.58Z" fill="#022C44"/>
</g>
<g filter="url(#filter1_d_9_312)">
<path d="M79.7434 131.426C41.6581 108.696 78.1984 80.9337 -41.9469 147.646L-83.1732 77.6866L-41.9469 -55.1486L278.441 -44.2266C335.372 -8.5087 428.347 73.7901 344.795 117.242C240.355 171.557 117.829 154.155 79.7434 131.426Z" fill="#0693E3"/>
</g>
</g>
<path d="M496.52 348V136.68H416.6V107.52H610.28V136.68H530.36V348H496.52ZM674.965 352.32C664.645 352.32 654.445 350.52 644.365 346.92C634.285 343.32 625.045 337.8 616.645 330.36C608.485 322.68 601.885 312.96 596.845 301.2C591.805 289.44 589.285 275.52 589.285 259.44C589.285 243.36 591.805 229.44 596.845 217.68C601.885 205.92 608.485 196.32 616.645 188.88C625.045 181.2 634.285 175.56 644.365 171.96C654.445 168.36 664.645 166.56 674.965 166.56C685.285 166.56 695.485 168.36 705.565 171.96C715.885 175.56 725.125 181.2 733.285 188.88C741.685 196.32 748.285 205.92 753.085 217.68C758.125 229.44 760.645 243.36 760.645 259.44C760.645 275.52 758.125 289.44 753.085 301.2C748.285 312.96 741.685 322.68 733.285 330.36C725.125 337.8 715.885 343.32 705.565 346.92C695.485 350.52 685.285 352.32 674.965 352.32ZM674.965 325.68C683.605 325.68 692.005 323.4 700.165 318.84C708.325 314.04 715.045 306.84 720.325 297.24C725.605 287.4 728.245 274.8 728.245 259.44C728.245 244.08 725.605 231.6 720.325 222C715.045 212.16 708.325 204.96 700.165 200.4C692.005 195.6 683.605 193.2 674.965 193.2C666.565 193.2 658.165 195.6 649.765 200.4C641.605 204.96 634.885 212.16 629.605 222C624.325 231.6 621.685 244.08 621.685 259.44C621.685 274.8 624.325 287.4 629.605 297.24C634.885 306.84 641.605 314.04 649.765 318.84C658.165 323.4 666.565 325.68 674.965 325.68ZM792.238 348V107.52H822.478V249.72L894.478 169.44H930.838L863.518 243.24L939.838 348H902.758L843.358 265.56L822.478 288.24V348H792.238ZM1032.21 352.32C1013.49 352.32 997.648 348.24 984.688 340.08C971.728 331.68 961.768 320.52 954.808 306.6C948.088 292.44 944.728 276.6 944.728 259.08C944.728 240.12 948.568 223.8 956.248 210.12C963.928 196.2 974.248 185.52 987.208 178.08C1000.41 170.4 1015.17 166.56 1031.49 166.56C1045.65 166.56 1058.13 169.44 1068.93 175.2C1079.73 180.72 1088.61 188.28 1095.57 197.88C1102.77 207.24 1107.93 217.92 1111.05 229.92C1114.41 241.92 1115.61 254.28 1114.65 267H977.128C977.608 281.88 980.848 293.64 986.848 302.28C993.088 310.92 1000.41 317.04 1008.81 320.64C1017.21 324 1025.01 325.68 1032.21 325.68C1042.29 325.68 1050.69 324.12 1057.41 321C1064.37 317.64 1069.89 313.32 1073.97 308.04L1103.13 316.68C1096.65 327 1087.41 335.52 1075.41 342.24C1063.41 348.96 1049.01 352.32 1032.21 352.32ZM977.488 242.88H1082.61C1082.61 234.48 1080.45 226.44 1076.13 218.76C1072.05 211.08 1066.17 204.84 1058.49 200.04C1051.05 195 1042.05 192.48 1031.49 192.48C1022.61 192.48 1014.21 194.16 1006.29 197.52C998.368 200.88 991.768 206.28 986.488 213.72C981.448 221.16 978.448 230.88 977.488 242.88ZM1143.11 348V169.44H1165.43L1173.35 196.44C1178.39 188.04 1185.47 180.96 1194.59 175.2C1203.71 169.44 1215.83 166.56 1230.95 166.56C1252.55 166.56 1267.79 172.92 1276.67 185.64C1285.55 198.12 1289.99 214.56 1289.99 234.96V348H1259.75V243.96C1259.75 234.84 1258.91 226.44 1257.23 218.76C1255.55 210.84 1251.83 204.48 1246.07 199.68C1240.55 194.88 1232.03 192.48 1220.51 192.48C1205.87 192.48 1194.35 197.52 1185.95 207.6C1177.55 217.44 1173.35 231.96 1173.35 251.16V348H1143.11ZM1370.36 348V136.68H1290.44V107.52H1484.12V136.68H1404.2V348H1370.36ZM1485.2 348V169.44H1507.16L1516.88 202.56C1523.12 191.76 1531.52 183.12 1542.08 176.64C1552.88 169.92 1565.72 166.56 1580.6 166.56V197.88C1578.92 197.88 1577.12 197.88 1575.2 197.88C1573.52 197.88 1571.84 198 1570.16 198.24C1549.76 199.92 1535.48 207 1527.32 219.48C1519.4 231.96 1515.44 249.24 1515.44 271.32V348H1485.2ZM1676.3 352.32C1657.58 352.32 1641.74 348.24 1628.78 340.08C1615.82 331.68 1605.86 320.52 1598.9 306.6C1592.18 292.44 1588.82 276.6 1588.82 259.08C1588.82 240.12 1592.66 223.8 1600.34 210.12C1608.02 196.2 1618.34 185.52 1631.3 178.08C1644.5 170.4 1659.26 166.56 1675.58 166.56C1689.74 166.56 1702.22 169.44 1713.02 175.2C1723.82 180.72 1732.7 188.28 1739.66 197.88C1746.86 207.24 1752.02 217.92 1755.14 229.92C1758.5 241.92 1759.7 254.28 1758.74 267H1621.22C1621.7 281.88 1624.94 293.64 1630.94 302.28C1637.18 310.92 1644.5 317.04 1652.9 320.64C1661.3 324 1669.1 325.68 1676.3 325.68C1686.38 325.68 1694.78 324.12 1701.5 321C1708.46 317.64 1713.98 313.32 1718.06 308.04L1747.22 316.68C1740.74 327 1731.5 335.52 1719.5 342.24C1707.5 348.96 1693.1 352.32 1676.3 352.32ZM1621.58 242.88H1726.7C1726.7 234.48 1724.54 226.44 1720.22 218.76C1716.14 211.08 1710.26 204.84 1702.58 200.04C1695.14 195 1686.14 192.48 1675.58 192.48C1666.7 192.48 1658.3 194.16 1650.38 197.52C1642.46 200.88 1635.86 206.28 1630.58 213.72C1625.54 221.16 1622.54 230.88 1621.58 242.88ZM1863.16 352.32C1844.44 352.32 1828.6 348.24 1815.64 340.08C1802.68 331.68 1792.72 320.52 1785.76 306.6C1779.04 292.44 1775.68 276.6 1775.68 259.08C1775.68 240.12 1779.52 223.8 1787.2 210.12C1794.88 196.2 1805.2 185.52 1818.16 178.08C1831.36 170.4 1846.12 166.56 1862.44 166.56C1876.6 166.56 1889.08 169.44 1899.88 175.2C1910.68 180.72 1919.56 188.28 1926.52 197.88C1933.72 207.24 1938.88 217.92 1942 229.92C1945.36 241.92 1946.56 254.28 1945.6 267H1808.08C1808.56 281.88 1811.8 293.64 1817.8 302.28C1824.04 310.92 1831.36 317.04 1839.76 320.64C1848.16 324 1855.96 325.68 1863.16 325.68C1873.24 325.68 1881.64 324.12 1888.36 321C1895.32 317.64 1900.84 313.32 1904.92 308.04L1934.08 316.68C1927.6 327 1918.36 335.52 1906.36 342.24C1894.36 348.96 1879.96 352.32 1863.16 352.32ZM1808.44 242.88H1913.56C1913.56 234.48 1911.4 226.44 1907.08 218.76C1903 211.08 1897.12 204.84 1889.44 200.04C1882 195 1873 192.48 1862.44 192.48C1853.56 192.48 1845.16 194.16 1837.24 197.52C1829.32 200.88 1822.72 206.28 1817.44 213.72C1812.4 221.16 1809.4 230.88 1808.44 242.88Z" fill="black"/>
<defs>
<filter id="filter0_i_9_312" x="-56.5921" y="225.608" width="503.722" height="274.878" filterUnits="userSpaceOnUse" color-interpolation-filters="sRGB">
<feFlood flood-opacity="0" result="BackgroundImageFix"/>
<feBlend mode="normal" in="SourceGraphic" in2="BackgroundImageFix" result="shape"/>
<feColorMatrix in="SourceAlpha" type="matrix" values="0 0 0 0 0 0 0 0 0 0 0 0 0 0 0 0 0 0 127 0" result="hardAlpha"/>
<feOffset dy="16"/>
<feGaussianBlur stdDeviation="24"/>
<feComposite in2="hardAlpha" operator="arithmetic" k2="-1" k3="1"/>
<feColorMatrix type="matrix" values="0 0 0 0 0 0 0 0 0 0 0 0 0 0 0 0 0 0 0.25 0"/>
<feBlend mode="normal" in2="shape" result="effect1_innerShadow_9_312"/>
</filter>
<filter id="filter1_d_9_312" x="-131.173" y="-87.1487" width="557.311" height="304.387" filterUnits="userSpaceOnUse" color-interpolation-filters="sRGB">
<feFlood flood-opacity="0" result="BackgroundImageFix"/>
<feColorMatrix in="SourceAlpha" type="matrix" values="0 0 0 0 0 0 0 0 0 0 0 0 0 0 0 0 0 0 127 0" result="hardAlpha"/>
<feOffset dy="16"/>
<feGaussianBlur stdDeviation="24"/>
<feComposite in2="hardAlpha" operator="out"/>
<feColorMatrix type="matrix" values="0 0 0 0 0 0 0 0 0 0 0 0 0 0 0 0 0 0 0.25 0"/>
<feBlend mode="normal" in2="BackgroundImageFix" result="effect1_dropShadow_9_312"/>
<feBlend mode="normal" in="SourceGraphic" in2="effect1_dropShadow_9_312" result="shape"/>
</filter>
</defs>
</svg>
